<?xml version="1.0" encoding="UTF-8" standalone="no"?>
<!-- Created with Inkscape (http://www.inkscape.org/) -->

<svg
   xmlns:dc="http://purl.org/dc/elements/1.1/"
   xmlns:cc="http://creativecommons.org/ns#"
   xmlns:rdf="http://www.w3.org/1999/02/22-rdf-syntax-ns#"
   xmlns:svg="http://www.w3.org/2000/svg"
   xmlns="http://www.w3.org/2000/svg"
   xmlns:sodipodi="http://sodipodi.sourceforge.net/DTD/sodipodi-0.dtd"
   xmlns:inkscape="http://www.inkscape.org/namespaces/inkscape"
   version="1.1"
   id="svg2"
   xml:space="preserve"
   width="452"
   height="225.34584"
   viewBox="0 0 452 225.34584"
   sodipodi:docname="architecture.svg"
   inkscape:version="0.92.2 5c3e80d, 2017-08-06"><metadata
     id="metadata8"><rdf:RDF><cc:Work
         rdf:about=""><dc:format>image/svg+xml</dc:format><dc:type
           rdf:resource="http://purl.org/dc/dcmitype/StillImage" /><dc:title></dc:title></cc:Work></rdf:RDF></metadata><defs
     id="defs6"><clipPath
       clipPathUnits="userSpaceOnUse"
       id="clipPath18"><path
         d="M 0,0 H 339 V 179.93631 H 0 Z"
         id="path16"
         inkscape:connector-curvature="0"
         style="clip-rule:evenodd" /></clipPath><clipPath
       clipPathUnits="userSpaceOnUse"
       id="clipPath30"><path
         d="M 0,0 H 339 V 179.93631 H 0 Z"
         id="path28"
         inkscape:connector-curvature="0"
         style="clip-rule:evenodd" /></clipPath></defs><sodipodi:namedview
     pagecolor="#ffffff"
     bordercolor="#666666"
     borderopacity="1"
     objecttolerance="10"
     gridtolerance="10"
     guidetolerance="10"
     inkscape:pageopacity="0"
     inkscape:pageshadow="2"
     inkscape:window-width="1109"
     inkscape:window-height="744"
     id="namedview4"
     showgrid="false"
     showguides="true"
     inkscape:guide-bbox="true"
     fit-margin-top="0"
     fit-margin-left="0"
     fit-margin-right="0"
     fit-margin-bottom="0"
     inkscape:zoom="1.0982057"
     inkscape:cx="199.61811"
     inkscape:cy="66.888961"
     inkscape:window-x="251"
     inkscape:window-y="19"
     inkscape:window-maximized="0"
     inkscape:current-layer="g10" /><g
     id="g10"
     inkscape:groupmode="layer"
     inkscape:label="architecture"
     transform="matrix(1.3333333,0,0,1.3333333,0,-14.56922)"><path
       inkscape:connector-curvature="0"
       id="path36"
       style="fill:#e6e6e6;fill-opacity:1;stroke:#000000;stroke-width:0.71974522;stroke-linecap:butt;stroke-linejoin:miter;stroke-miterlimit:10;stroke-dasharray:none;stroke-opacity:1"
       d="M 0.35987261,11.286788 H 338.64013 V 129.91401 H 0.35987261 Z" /><path
       inkscape:connector-curvature="0"
       id="path38"
       style="fill:#ffffff;fill-opacity:1;fill-rule:nonzero;stroke:none;stroke-width:0.71974522"
       d="M 65.136942,36.347134 H 108.32166 V 122.71656 H 65.136942 Z" /><path
       inkscape:connector-curvature="0"
       id="path40"
       style="fill:none;stroke:#000000;stroke-width:0.71974522;stroke-linecap:butt;stroke-linejoin:miter;stroke-miterlimit:10;stroke-dasharray:none;stroke-opacity:1"
       d="M 65.136942,36.347134 H 108.32166 V 122.71656 H 65.136942 Z" /><text
       id="text50"
       style="font-variant:normal;font-weight:normal;font-size:8.63694286px;font-family:'Times New Roman';-inkscape-font-specification:TimesNewRomanPSMT;writing-mode:lr-tb;fill:#000000;fill-opacity:1;fill-rule:nonzero;stroke:none;stroke-width:0.71974522"
       x="201.52866"
       y="17.273886"><tspan
         id="tspan48"
         y="17.273886"
         x="201.52866"
         style="stroke-width:0.71974522"> </tspan></text>
<text
       id="text46"
       style="font-variant:normal;font-weight:bold;font-size:17.27388573px;font-family:'Times New Roman';-inkscape-font-specification:TimesNewRomanPS-BoldMT;writing-mode:lr-tb;fill:#000000;fill-opacity:1;fill-rule:nonzero;stroke:none;stroke-width:0.71974522"
       x="6.1548758"
       y="29.241318"><tspan
         y="29.241318"
         x="6.1548758"
         id="tspan44"
         sodipodi:role="line"
         style="stroke-width:0.71974522">BugsJS</tspan></text>
<path
       d="m 73.658892,17.801524 c -3.48349,0 -6.30827,2.824247 -6.30827,6.308281 0,2.787164 1.80752,5.151777 4.31399,5.985909 0.31527,0.0584 0.43102,-0.136844 0.43102,-0.303463 0,-0.150429 -0.007,-0.647355 -0.009,-1.174471 -1.75498,0.3816 -2.12529,-0.744297 -2.12529,-0.744297 -0.28695,-0.729149 -0.70041,-0.923029 -0.70041,-0.923029 -0.57236,-0.391528 0.0431,-0.383483 0.0431,-0.383483 0.63346,0.04441 0.96701,0.650174 0.96701,0.650174 0.56265,0.964293 1.47575,0.685482 1.83573,0.524297 0.0567,-0.407716 0.22009,-0.686108 0.4005,-0.843533 -1.40114,-0.159508 -2.87407,-0.700421 -2.87407,-3.11758 0,-0.68872 0.24643,-1.251461 0.64996,-1.69323 -0.0654,-0.158998 -0.28143,-0.800497 0.0611,-1.669417 0,0 0.52973,-0.169538 1.73522,0.646623 0.50321,-0.139765 1.04286,-0.209864 1.57894,-0.212266 0.53612,0.0023 1.0762,0.0725 1.58032,0.212266 1.20403,-0.816164 1.73304,-0.646623 1.73304,-0.646623 0.34337,0.86892 0.12739,1.510424 0.0618,1.669417 0.40448,0.441769 0.64924,1.00451 0.64924,1.69323 0,2.422904 -1.47574,2.956393 -2.88045,3.112565 0.22625,0.195761 0.42788,0.579661 0.42788,1.168203 0,0.844058 -0.007,1.523376 -0.007,1.731154 0,0.167866 0.11367,0.364572 0.43332,0.302627 2.50511,-0.835075 4.31033,-3.19885 4.31033,-5.985073 0,-3.484034 -2.82436,-6.308281 -6.30817,-6.308281"
       style="fill:#1b1817;fill-opacity:1;fill-rule:evenodd;stroke:none;stroke-width:0.10000001"
       id="path18"
       inkscape:connector-curvature="0" /><text
       xml:space="preserve"
       style="font-style:normal;font-weight:normal;font-size:12px;line-height:1.25;font-family:sans-serif;letter-spacing:0px;word-spacing:0px;fill:#000000;fill-opacity:1;stroke:none;stroke-width:0.75"
       x="80.927452"
       y="27.788975"
       id="text1197"><tspan
         sodipodi:role="line"
         id="tspan1195"
         x="80.927452"
         y="27.788975"
         style="font-style:normal;font-variant:normal;font-weight:normal;font-stretch:normal;font-family:'Times New Roman';-inkscape-font-specification:'Times New Roman, ';stroke-width:0.75">Organization</tspan></text>
<g
       id="g56"
       transform="matrix(0.71974522,0,0,0.71974522,80.611465,69.095543)"><text
         transform="translate(0.75,20)"
         style="font-variant:normal;font-weight:normal;font-size:22px;font-family:'Times New Roman';-inkscape-font-specification:TimesNewRomanPSMT;writing-mode:lr-tb;fill:#000000;fill-opacity:1;fill-rule:nonzero;stroke:none"
         id="text60"><tspan
           x="0 5.5 11"
           y="0"
           sodipodi:role="line"
           id="tspan58">...</tspan></text>
</g><g
       id="g62"
       transform="matrix(0.71974522,0,0,0.71974522,0.35987261,0.35987261)"><path
         d="M 60,209 V 189 175.37"
         style="fill:none;stroke:#000000;stroke-width:1;stroke-linecap:butt;stroke-linejoin:miter;stroke-miterlimit:10;stroke-dasharray:none;stroke-opacity:1"
         id="path64"
         inkscape:connector-curvature="0" /><path
         d="m 60,170.12 3.5,7 -3.5,-1.75 -3.5,1.75 z"
         style="fill:#000000;fill-opacity:1;fill-rule:nonzero;stroke:none"
         id="path66"
         inkscape:connector-curvature="0" /><path
         d="m 60,170.12 3.5,7 -3.5,-1.75 -3.5,1.75 z"
         style="fill:none;stroke:#000000;stroke-width:1;stroke-linecap:butt;stroke-linejoin:miter;stroke-miterlimit:10;stroke-dasharray:none;stroke-opacity:1"
         id="path68"
         inkscape:connector-curvature="0" /></g><g
       id="g70"
       transform="matrix(0.71974522,0,0,0.71974522,46.063694,132.43312)"><path
         d="M 0,0 H 32 V 13 H 0 Z"
         style="fill:#ffffff;fill-opacity:1;fill-rule:nonzero;stroke:none"
         id="path72"
         inkscape:connector-curvature="0" /><text
         transform="translate(0,10)"
         style="font-style:italic;font-variant:normal;font-size:11px;font-family:'Times New Roman';-inkscape-font-specification:TimesNewRomanPS-ItalicMT;writing-mode:lr-tb;fill:#000000;fill-opacity:1;fill-rule:nonzero;stroke:none"
         id="text76"><tspan
           x="0 6.7192383 12.219238 16.5 21.382324 26.264648"
           y="0"
           sodipodi:role="line"
           id="tspan74">Forked</tspan></text>
</g><g
       id="g78"
       transform="matrix(0.71974522,0,0,0.71974522,103.64331,77.732483)"><text
         transform="translate(0.75,20)"
         style="font-variant:normal;font-weight:bold;font-size:22px;font-family:'Times New Roman';-inkscape-font-specification:TimesNewRomanPS-BoldMT;writing-mode:lr-tb;fill:#000000;fill-opacity:1;fill-rule:nonzero;stroke:none"
         id="text82"><tspan
           x="0 5.5 11"
           y="0"
           sodipodi:role="line"
           id="tspan80">...</tspan></text>
</g><g
       id="g84"
       transform="matrix(0.71974522,0,0,0.71974522,0.35987261,0.35987261)"><path
         d="M 181,208.92 V 189 175.37"
         style="fill:none;stroke:#000000;stroke-width:1;stroke-linecap:butt;stroke-linejoin:miter;stroke-miterlimit:10;stroke-dasharray:none;stroke-opacity:1"
         id="path86"
         inkscape:connector-curvature="0" /><path
         d="m 181,170.12 3.5,7 -3.5,-1.75 -3.5,1.75 z"
         style="fill:#000000;fill-opacity:1;fill-rule:nonzero;stroke:none"
         id="path88"
         inkscape:connector-curvature="0" /><path
         d="m 181,170.12 3.5,7 -3.5,-1.75 -3.5,1.75 z"
         style="fill:none;stroke:#000000;stroke-width:1;stroke-linecap:butt;stroke-linejoin:miter;stroke-miterlimit:10;stroke-dasharray:none;stroke-opacity:1"
         id="path90"
         inkscape:connector-curvature="0" /></g><g
       id="g92"
       transform="matrix(0.71974522,0,0,0.71974522,134.59236,131.71338)"><path
         d="M 0,0 H 32 V 13 H 0 Z"
         style="fill:#ffffff;fill-opacity:1;fill-rule:nonzero;stroke:none"
         id="path94"
         inkscape:connector-curvature="0" /><text
         transform="translate(0,10)"
         style="font-style:italic;font-variant:normal;font-size:11px;font-family:'Times New Roman';-inkscape-font-specification:TimesNewRomanPS-ItalicMT;writing-mode:lr-tb;fill:#000000;fill-opacity:1;fill-rule:nonzero;stroke:none"
         id="text98"><tspan
           x="0 6.7192383 12.219238 16.5 21.382324 26.264648"
           y="0"
           sodipodi:role="line"
           id="tspan96">Forked</tspan></text>
</g><path
       inkscape:connector-curvature="0"
       id="path102"
       style="fill:#ffffff;fill-opacity:1;fill-rule:nonzero;stroke:none;stroke-width:0.71974522"
       d="M 94.646496,36.347134 H 166.62102 V 122.71656 H 94.646496 Z" /><path
       inkscape:connector-curvature="0"
       id="path104"
       style="fill:none;stroke:#000000;stroke-width:0.71974522;stroke-linecap:butt;stroke-linejoin:miter;stroke-miterlimit:10;stroke-dasharray:none;stroke-opacity:1"
       d="M 94.646496,36.347134 H 166.62102 V 122.71656 H 94.646496 Z" /><path
       inkscape:connector-curvature="0"
       id="path106"
       style="fill:#f0f0f0;fill-opacity:1;fill-rule:nonzero;stroke:none;stroke-width:0.71974522"
       d="M 94.646496,36.347134 H 166.62102 V 65.194523 H 94.646496 Z" /><path
       inkscape:connector-curvature="0"
       id="path108"
       style="fill:none;stroke:#000000;stroke-width:0.71974522;stroke-linecap:butt;stroke-linejoin:miter;stroke-miterlimit:10;stroke-dasharray:none;stroke-opacity:1"
       d="M 94.646496,36.347134 H 166.62102 V 65.194523 H 94.646496 Z" /><text
       id="text114"
       style="font-variant:normal;font-weight:bold;font-size:8.63694286px;font-family:'Times New Roman';-inkscape-font-specification:TimesNewRomanPS-BoldMT;writing-mode:lr-tb;fill:#000000;fill-opacity:1;fill-rule:nonzero;stroke:none;stroke-width:0.71974522"
       x="111.07694"
       y="48.942677"><tspan
         id="tspan112"
         sodipodi:role="line"
         y="48.942677"
         x="111.07694 115.88039 120.68385 125.4873 128.36348 132.19696 136.03046 138.90662 143.2251"
         style="stroke-width:0.71974522">Subject#N</tspan></text>
<text
       id="text118"
       style="font-variant:normal;font-weight:bold;font-size:8.63694286px;font-family:'Times New Roman';-inkscape-font-specification:TimesNewRomanPS-BoldMT;writing-mode:lr-tb;fill:#000000;fill-opacity:1;fill-rule:nonzero;stroke:none;stroke-width:0.71974522"
       x="149.45959"
       y="48.942677"><tspan
         id="tspan116"
         y="48.942677"
         x="149.45959"
         style="stroke-width:0.71974522"> </tspan></text>
<text
       id="text122"
       style="font-style:italic;font-variant:normal;font-size:7.19745207px;font-family:'Times New Roman';-inkscape-font-specification:TimesNewRomanPS-ItalicMT;writing-mode:lr-tb;fill:#000000;fill-opacity:1;fill-rule:nonzero;stroke:none;stroke-width:0.71974522"
       x="123.27887"
       y="59.019108"><tspan
         id="tspan120"
         sodipodi:role="line"
         y="59.019108"
         x="123.27887 127.67536 131.27409 134.07504"
         style="stroke-width:0.71974522">Fork</tspan></text>
<g
       id="g124"
       transform="matrix(0.71974522,0,0,0.71974522,101.48408,70.535034)"><text
         transform="translate(0,11)"
         style="font-variant:normal;font-weight:normal;font-size:12px;font-family:'Times New Roman';-inkscape-font-specification:TimesNewRomanPSMT;writing-mode:lr-tb;fill:#000000;fill-opacity:1;fill-rule:nonzero;stroke:none"
         id="text128"><tspan
           x="0 6.6738281 12.673828 18.673828 22.669922 27.996094 33.322266 36.322266 41.648438 47.648438 53.648438"
           y="0"
           sodipodi:role="line"
           id="tspan126">Source code</tspan></text>
<text
         transform="translate(58.96875,11)"
         style="font-variant:normal;font-weight:normal;font-size:12px;font-family:'Times New Roman';-inkscape-font-specification:TimesNewRomanPSMT;writing-mode:lr-tb;fill:#000000;fill-opacity:1;fill-rule:nonzero;stroke:none"
         id="text132"><tspan
           x="0"
           y="0"
           id="tspan130"> </tspan></text>
<text
         transform="translate(0,25)"
         style="font-variant:normal;font-weight:normal;font-size:12px;font-family:'Times New Roman';-inkscape-font-specification:TimesNewRomanPSMT;writing-mode:lr-tb;fill:#000000;fill-opacity:1;fill-rule:nonzero;stroke:none"
         id="text136"><tspan
           x="0 6.4921875 11.818359 16.488281 19.822266"
           y="0"
           sodipodi:role="line"
           id="tspan134">Tests</tspan></text>
<text
         transform="translate(24.484375,25)"
         style="font-variant:normal;font-weight:normal;font-size:12px;font-family:'Times New Roman';-inkscape-font-specification:TimesNewRomanPSMT;writing-mode:lr-tb;fill:#000000;fill-opacity:1;fill-rule:nonzero;stroke:none"
         id="text140"><tspan
           x="0"
           y="0"
           id="tspan138"> </tspan></text>
<text
         transform="translate(0,39)"
         style="font-variant:normal;font-weight:normal;font-size:12px;font-family:'Times New Roman';-inkscape-font-specification:TimesNewRomanPSMT;writing-mode:lr-tb;fill:#000000;fill-opacity:1;fill-rule:nonzero;stroke:none"
         id="text144"><tspan
           x="0 8.0039062 11.337891 16.664062 21.990234 27.990234 33.316406 39.316406 42.316406 48.316406 53.642578 56.976562 62.302734 68.302734 73.628906"
           y="0"
           sodipodi:role="line"
           id="tspan142">Cleaned patches</tspan></text>
<text
         transform="translate(78.296875,39)"
         style="font-variant:normal;font-weight:normal;font-size:12px;font-family:'Times New Roman';-inkscape-font-specification:TimesNewRomanPSMT;writing-mode:lr-tb;fill:#000000;fill-opacity:1;fill-rule:nonzero;stroke:none"
         id="text148"><tspan
           x="0"
           y="0"
           id="tspan146"> </tspan></text>
<text
         transform="translate(0,53)"
         style="font-variant:normal;font-weight:normal;font-size:12px;font-family:'Times New Roman';-inkscape-font-specification:TimesNewRomanPSMT;writing-mode:lr-tb;fill:#000000;fill-opacity:1;fill-rule:nonzero;stroke:none"
         id="text152"><tspan
           x="0 6.4921875 11.818359 17.818359 23.818359 29.144531 35.144531 38.144531 44.144531 50.144531 56.144531 59.144531 63.140625 66.474609 72.474609 77.800781"
           y="0"
           sodipodi:role="line"
           id="tspan150">Tagged bug fixes</tspan></text>
</g><g
       id="g154"
       transform="matrix(0.71974522,0,0,0.71974522,0.35987261,0.35987261)"><path
         d="M 131,208.92 H 231 V 249 H 131 Z"
         style="fill:#ffffff;fill-opacity:1;fill-rule:nonzero;stroke:none"
         id="path156"
         inkscape:connector-curvature="0" /><path
         d="m 137,208.42 h 3 v 1 h -3 z m 6,0 h 3 v 1 h -3 z m 6,0 h 3 v 1 h -3 z m 6,0 h 3 v 1 h -3 z m 6,0 h 3 v 1 h -3 z m 6,0 h 3 v 1 h -3 z m 6,0 h 3 v 1 h -3 z m 6,0 h 3 v 1 h -3 z m 6,0 h 3 v 1 h -3 z m 6,0 h 3 v 1 h -3 z m 6,0 h 3 v 1 h -3 z m 6,0 h 3 v 1 h -3 z m 6,0 h 3 v 1 h -3 z m 6,0 h 3 v 1 h -3 z m 6,0 h 3 v 1 h -3 z m 6,0 h 3 v 1 h -3 z m 4.5,2.5 v 3 h -1 v -3 z m 0,6 v 3 h -1 v -3 z m 0,6 v 3 h -1 v -3 z m 0,6 v 3 h -1 v -3 z m 0,6 v 3 h -1 v -3 z m 0,6 v 3 h -1 v -3 z m 0,6 v 2.58 h -1.42 v -1 H 231 v 0.5 h -0.5 v -2.08 z m -4.42,2.58 h -3 v -1 h 3 z m -6,0 h -3 v -1 h 3 z m -6,0 h -3 v -1 h 3 z m -6,0 h -3 v -1 h 3 z m -6,0 h -3 v -1 h 3 z m -6,0 h -3 v -1 h 3 z m -6,0 h -3 v -1 h 3 z m -6,0 h -3 v -1 h 3 z m -6,0 h -3 v -1 h 3 z m -6,0 h -3 v -1 h 3 z m -6,0 h -3 v -1 h 3 z m -6,0 h -3 v -1 h 3 z m -6,0 h -3 v -1 h 3 z m -6,0 h -3 v -1 h 3 z m -6,0 h -3 v -1 h 3 z m -6,0 h -3 v -1 h 3 z m -6,0 h -0.58 v -3.42 h 1 V 249 H 131 v -0.5 h 0.08 z m -0.58,-6.42 v -3 h 1 v 3 z m 0,-6 v -3 h 1 v 3 z m 0,-6 v -3 h 1 v 3 z m 0,-6 v -3 h 1 v 3 z m 0,-6 v -3 h 1 v 3 z m 0,-6 v -3 h 1 v 3 z m 0.5,-4.66 h 3 v 1 h -3 z"
         style="fill:#000000;fill-opacity:1;fill-rule:nonzero;stroke:none"
         id="path158"
         inkscape:connector-curvature="0" /></g><g
       id="g160"
       transform="matrix(0.71974522,0,0,0.71974522,102.20382,155.46497)"><text
         transform="translate(12.328125,11)"
         style="font-variant:normal;font-weight:bold;font-size:12px;font-family:'Times New Roman';-inkscape-font-specification:TimesNewRomanPS-BoldMT;writing-mode:lr-tb;fill:#000000;fill-opacity:1;fill-rule:nonzero;stroke:none"
         id="text164"><tspan
           x="0 6.6738281 13.347656 20.021484 24.017578 29.34375 34.669922 38.666016 44.666016"
           y="0"
           sodipodi:role="line"
           id="tspan162">Subject#N</tspan></text>
<text
         transform="translate(65.65625,11)"
         style="font-variant:normal;font-weight:bold;font-size:12px;font-family:'Times New Roman';-inkscape-font-specification:TimesNewRomanPS-BoldMT;writing-mode:lr-tb;fill:#000000;fill-opacity:1;fill-rule:nonzero;stroke:none"
         id="text168"><tspan
           x="0"
           y="0"
           id="tspan166"> </tspan></text>
<text
         transform="translate(0.15625,25)"
         style="font-style:italic;font-variant:normal;font-size:10px;font-family:'Times New Roman';-inkscape-font-specification:TimesNewRomanPS-ItalicMT;writing-mode:lr-tb;fill:#000000;fill-opacity:1;fill-rule:nonzero;stroke:none"
         id="text172"><tspan
           x="0 7.2216797 11.113281 13.891602 18.891602 21.669922 26.669922 31.669922 34.448242 36.948242 40.46875 44.907227 49.907227 54.907227 58.798828 61.577148 64.355469 69.355469 73.24707"
           y="0"
           sodipodi:role="line"
           id="tspan170">Original repository</tspan></text>
</g><path
       inkscape:connector-curvature="0"
       id="path176"
       style="fill:#ffffff;fill-opacity:1;fill-rule:nonzero;stroke:none;stroke-width:0.71974522"
       d="M 7.5573248,36.347134 H 79.531847 V 122.71656 H 7.5573248 Z" /><path
       inkscape:connector-curvature="0"
       id="path178"
       style="fill:none;stroke:#000000;stroke-width:0.71974522;stroke-linecap:butt;stroke-linejoin:miter;stroke-miterlimit:10;stroke-dasharray:none;stroke-opacity:1"
       d="M 7.5573248,36.347134 H 79.531847 V 122.71656 H 7.5573248 Z" /><path
       inkscape:connector-curvature="0"
       id="path180"
       style="fill:#f0f0f0;fill-opacity:1;fill-rule:nonzero;stroke:none;stroke-width:0.71974522"
       d="M 7.5573248,36.347134 H 79.531847 V 65.194523 H 7.5573248 Z" /><path
       inkscape:connector-curvature="0"
       id="path182"
       style="fill:none;stroke:#000000;stroke-width:0.71974522;stroke-linecap:butt;stroke-linejoin:miter;stroke-miterlimit:10;stroke-dasharray:none;stroke-opacity:1"
       d="M 7.5573248,36.347134 H 79.531847 V 65.194523 H 7.5573248 Z" /><g
       id="g184"
       transform="matrix(0.71974522,0,0,0.71974522,25.191082,41.025478)"><text
         transform="translate(0.65625,11)"
         style="font-variant:normal;font-weight:bold;font-size:12px;font-family:'Times New Roman';-inkscape-font-specification:TimesNewRomanPS-BoldMT;writing-mode:lr-tb;fill:#000000;fill-opacity:1;fill-rule:nonzero;stroke:none"
         id="text188"><tspan
           x="0 6.6738281 13.347656 20.021484 24.017578 29.34375 34.669922 38.666016 44.666016"
           y="0"
           sodipodi:role="line"
           id="tspan186">Subject#1</tspan></text>
<text
         transform="translate(51.3125,11)"
         style="font-variant:normal;font-weight:bold;font-size:12px;font-family:'Times New Roman';-inkscape-font-specification:TimesNewRomanPS-BoldMT;writing-mode:lr-tb;fill:#000000;fill-opacity:1;fill-rule:nonzero;stroke:none"
         id="text192"><tspan
           x="0"
           y="0"
           id="tspan190"> </tspan></text>
<text
         transform="translate(16.265625,25)"
         style="font-style:italic;font-variant:normal;font-size:10px;font-family:'Times New Roman';-inkscape-font-specification:TimesNewRomanPS-ItalicMT;writing-mode:lr-tb;fill:#000000;fill-opacity:1;fill-rule:nonzero;stroke:none"
         id="text196"><tspan
           x="0 6.1083984 11.108398 15"
           y="0"
           sodipodi:role="line"
           id="tspan194">Fork</tspan></text>
</g><g
       id="g198"
       transform="matrix(0.71974522,0,0,0.71974522,12.955414,70.535034)"><text
         transform="translate(0,11)"
         style="font-variant:normal;font-weight:normal;font-size:12px;font-family:'Times New Roman';-inkscape-font-specification:TimesNewRomanPSMT;writing-mode:lr-tb;fill:#000000;fill-opacity:1;fill-rule:nonzero;stroke:none"
         id="text202"><tspan
           x="0 6.6738281 12.673828 18.673828 22.669922 27.996094 33.322266 36.322266 41.648438 47.648438 53.648438"
           y="0"
           sodipodi:role="line"
           id="tspan200">Source code</tspan></text>
<text
         transform="translate(58.96875,11)"
         style="font-variant:normal;font-weight:normal;font-size:12px;font-family:'Times New Roman';-inkscape-font-specification:TimesNewRomanPSMT;writing-mode:lr-tb;fill:#000000;fill-opacity:1;fill-rule:nonzero;stroke:none"
         id="text206"><tspan
           x="0"
           y="0"
           id="tspan204"> </tspan></text>
<text
         transform="translate(0,25)"
         style="font-variant:normal;font-weight:normal;font-size:12px;font-family:'Times New Roman';-inkscape-font-specification:TimesNewRomanPSMT;writing-mode:lr-tb;fill:#000000;fill-opacity:1;fill-rule:nonzero;stroke:none"
         id="text210"><tspan
           x="0 6.4921875 11.818359 16.488281 19.822266"
           y="0"
           sodipodi:role="line"
           id="tspan208">Tests</tspan></text>
<text
         transform="translate(24.484375,25)"
         style="font-variant:normal;font-weight:normal;font-size:12px;font-family:'Times New Roman';-inkscape-font-specification:TimesNewRomanPSMT;writing-mode:lr-tb;fill:#000000;fill-opacity:1;fill-rule:nonzero;stroke:none"
         id="text214"><tspan
           x="0"
           y="0"
           id="tspan212"> </tspan></text>
<text
         transform="translate(0,39)"
         style="font-variant:normal;font-weight:normal;font-size:12px;font-family:'Times New Roman';-inkscape-font-specification:TimesNewRomanPSMT;writing-mode:lr-tb;fill:#000000;fill-opacity:1;fill-rule:nonzero;stroke:none"
         id="text218"><tspan
           x="0 8.0039062 11.337891 16.664062 21.990234 27.990234 33.316406 39.316406 42.316406 48.316406 53.642578 56.976562 62.302734 68.302734 73.628906"
           y="0"
           sodipodi:role="line"
           id="tspan216">Cleaned patches</tspan></text>
<text
         transform="translate(78.296875,39)"
         style="font-variant:normal;font-weight:normal;font-size:12px;font-family:'Times New Roman';-inkscape-font-specification:TimesNewRomanPSMT;writing-mode:lr-tb;fill:#000000;fill-opacity:1;fill-rule:nonzero;stroke:none"
         id="text222"><tspan
           x="0"
           y="0"
           id="tspan220"> </tspan></text>
<text
         transform="translate(0,53)"
         style="font-variant:normal;font-weight:normal;font-size:12px;font-family:'Times New Roman';-inkscape-font-specification:TimesNewRomanPSMT;writing-mode:lr-tb;fill:#000000;fill-opacity:1;fill-rule:nonzero;stroke:none"
         id="text226"><tspan
           x="0 6.4921875 11.818359 17.818359 23.818359 29.144531 35.144531 38.144531 44.144531 50.144531 56.144531 59.144531 63.140625 66.474609 72.474609 77.800781"
           y="0"
           sodipodi:role="line"
           id="tspan224">Tagged bug fixes</tspan></text>
</g><g
       id="g228"
       transform="matrix(0.71974522,0,0,0.71974522,0.35987261,0.35987261)"><path
         d="M 10,208.92 H 110 V 249 H 10 Z"
         style="fill:#ffffff;fill-opacity:1;fill-rule:nonzero;stroke:none"
         id="path230"
         inkscape:connector-curvature="0" /><path
         d="m 16,208.42 h 3 v 1 h -3 z m 6,0 h 3 v 1 h -3 z m 6,0 h 3 v 1 h -3 z m 6,0 h 3 v 1 h -3 z m 6,0 h 3 v 1 h -3 z m 6,0 h 3 v 1 h -3 z m 6,0 h 3 v 1 h -3 z m 6,0 h 3 v 1 h -3 z m 6,0 h 3 v 1 h -3 z m 6,0 h 3 v 1 h -3 z m 6,0 h 3 v 1 h -3 z m 6,0 h 3 v 1 h -3 z m 6,0 h 3 v 1 h -3 z m 6,0 h 3 v 1 h -3 z m 6,0 h 3 v 1 h -3 z m 6,0 h 3 v 1 h -3 z m 4.5,2.5 v 3 h -1 v -3 z m 0,6 v 3 h -1 v -3 z m 0,6 v 3 h -1 v -3 z m 0,6 v 3 h -1 v -3 z m 0,6 v 3 h -1 v -3 z m 0,6 v 3 h -1 v -3 z m 0,6 v 2.58 h -1.42 v -1 H 110 v 0.5 h -0.5 v -2.08 z m -4.42,2.58 h -3 v -1 h 3 z m -6,0 h -2.999998 v -1 H 100.08 Z m -5.999998,0 h -3 v -1 h 3 z m -6,0 h -3 v -1 h 3 z m -6,0 h -3 v -1 h 3 z m -6,0 h -3 v -1 h 3 z m -6,0 h -3 v -1 h 3 z m -6,0 h -3 v -1 h 3 z m -6,0 h -3 v -1 h 3 z m -6,0 h -3 v -1 h 3 z m -6,0 h -3 v -1 h 3 z m -6,0 h -3 v -1 h 3 z m -6,0 h -3 v -1 h 3 z m -6,0 h -3 v -1 h 3 z m -6,0 h -3 v -1 h 3 z m -6,0 h -3 v -1 h 3 z m -6,0 H 9.5 v -3.42 h 1 V 249 H 10 v -0.5 h 0.08 v 1 z M 9.5,243.08 v -3 h 1 v 3 z m 0,-6 v -3 h 1 v 3 z m 0,-6 v -3 h 1 v 3 z m 0,-6 v -3 h 1 v 3 z m 0,-6 v -3 h 1 v 3 z m 0,-6 v -3 h 1 v 3 z m 0.5,-4.66 h 3 v 1 h -3 z"
         style="fill:#000000;fill-opacity:1;fill-rule:nonzero;stroke:none"
         id="path232"
         inkscape:connector-curvature="0" /></g><g
       id="g234"
       transform="matrix(0.71974522,0,0,0.71974522,15.11465,155.46497)"><text
         transform="translate(13.671875,11)"
         style="font-variant:normal;font-weight:bold;font-size:12px;font-family:'Times New Roman';-inkscape-font-specification:TimesNewRomanPS-BoldMT;writing-mode:lr-tb;fill:#000000;fill-opacity:1;fill-rule:nonzero;stroke:none"
         id="text238"><tspan
           x="0 6.6738281 13.347656 20.021484 24.017578 29.34375 34.669922 38.666016 44.666016"
           y="0"
           sodipodi:role="line"
           id="tspan236">Subject#1</tspan></text>
<text
         transform="translate(64.328125,11)"
         style="font-variant:normal;font-weight:bold;font-size:12px;font-family:'Times New Roman';-inkscape-font-specification:TimesNewRomanPS-BoldMT;writing-mode:lr-tb;fill:#000000;fill-opacity:1;fill-rule:nonzero;stroke:none"
         id="text242"><tspan
           x="0"
           y="0"
           id="tspan240"> </tspan></text>
<text
         transform="translate(0.15625,25)"
         style="font-style:italic;font-variant:normal;font-size:10px;font-family:'Times New Roman';-inkscape-font-specification:TimesNewRomanPS-ItalicMT;writing-mode:lr-tb;fill:#000000;fill-opacity:1;fill-rule:nonzero;stroke:none"
         id="text246"><tspan
           x="0 7.2216797 11.113281 13.891602 18.891602 21.669922 26.669922 31.669922 34.448242 36.948242 40.46875 44.907227 49.907227 54.907227 58.798828 61.577148 64.355469 69.355469 73.24707"
           y="0"
           sodipodi:role="line"
           id="tspan244">Original repository</tspan></text>
</g><path
       inkscape:connector-curvature="0"
       id="path250"
       style="fill:#ffffff;fill-opacity:1;fill-rule:nonzero;stroke:none;stroke-width:0.71974522"
       d="m 166.62102,36.347134 h 79.17197 v 86.369426 h -79.17197 z" /><path
       inkscape:connector-curvature="0"
       id="path252"
       style="fill:none;stroke:#000000;stroke-width:0.71974522;stroke-linecap:butt;stroke-linejoin:miter;stroke-miterlimit:10;stroke-dasharray:none;stroke-opacity:1"
       d="m 166.62102,36.347134 h 79.17197 v 86.369426 h -79.17197 z" /><path
       inkscape:connector-curvature="0"
       id="path254"
       style="fill:#f0f0f0;fill-opacity:1;fill-rule:nonzero;stroke:none;stroke-width:0.71974522"
       d="m 166.62102,36.347134 h 79.17197 v 28.789808 h -79.17197 z" /><path
       inkscape:connector-curvature="0"
       id="path256"
       style="fill:none;stroke:#000000;stroke-width:0.71974522;stroke-linecap:butt;stroke-linejoin:miter;stroke-miterlimit:10;stroke-dasharray:none;stroke-opacity:1"
       d="m 166.62102,36.347134 h 79.17197 v 28.789808 h -79.17197 z" /><g
       id="g258"
       transform="matrix(0.71974522,0,0,0.71974522,184.25478,41.025478)"><text
         transform="translate(0.984375,11)"
         style="font-variant:normal;font-weight:bold;font-size:12px;font-family:'Times New Roman';-inkscape-font-specification:TimesNewRomanPS-BoldMT;writing-mode:lr-tb;fill:#000000;fill-opacity:1;fill-rule:nonzero;stroke:none"
         id="text262"><tspan
           x="0 6.6738281 13.347656 19.347656 23.34375 30.017578 36.017578 40.013672 46.013672 50.683594 56.009766"
           y="0"
           sodipodi:role="line"
           id="tspan260">bug­dataset</tspan></text>
<text
         transform="translate(60.984375,11)"
         style="font-variant:normal;font-weight:bold;font-size:12px;font-family:'Times New Roman';-inkscape-font-specification:TimesNewRomanPS-BoldMT;writing-mode:lr-tb;fill:#000000;fill-opacity:1;fill-rule:nonzero;stroke:none"
         id="text266"><tspan
           x="0"
           y="0"
           id="tspan264"> </tspan></text>
<text
         transform="translate(9.328125,25)"
         style="font-style:italic;font-variant:normal;font-size:10px;font-family:'Times New Roman';-inkscape-font-specification:TimesNewRomanPS-ItalicMT;writing-mode:lr-tb;fill:#000000;fill-opacity:1;fill-rule:nonzero;stroke:none"
         id="text270"><tspan
           x="0 6.1083984 10.546875 15.546875 20.546875 24.438477 27.216797 29.995117 34.995117 38.886719"
           y="0"
           sodipodi:role="line"
           id="tspan268">Repository</tspan></text>
<text
         transform="translate(52.640625,25)"
         style="font-variant:normal;font-weight:bold;font-size:12px;font-family:'Times New Roman';-inkscape-font-specification:TimesNewRomanPS-BoldMT;writing-mode:lr-tb;fill:#000000;fill-opacity:1;fill-rule:nonzero;stroke:none"
         id="text274"><tspan
           x="0"
           y="0"
           id="tspan272"> </tspan></text>
</g><g
       id="g276"
       transform="matrix(0.71974522,0,0,0.71974522,173.4586,70.535034)"><text
         transform="translate(0,11)"
         style="font-variant:normal;font-weight:normal;font-size:12px;font-family:'Times New Roman';-inkscape-font-specification:TimesNewRomanPSMT;writing-mode:lr-tb;fill:#000000;fill-opacity:1;fill-rule:nonzero;stroke:none"
         id="text280"><tspan
           x="0 8.6660156 12 15.333984 18.667969 22.001953 25.335938 31.335938 34.335938 38.332031 42.328125 47.654297 56.988281 62.314453 70.980469 76.980469 80.976562"
           y="0"
           sodipodi:role="line"
           id="tspan278">Utility framework</tspan></text>
<text
         transform="translate(86.96875,11)"
         style="font-variant:normal;font-weight:normal;font-size:12px;font-family:'Times New Roman';-inkscape-font-specification:TimesNewRomanPSMT;writing-mode:lr-tb;fill:#000000;fill-opacity:1;fill-rule:nonzero;stroke:none"
         id="text284"><tspan
           x="0"
           y="0"
           id="tspan282"> </tspan></text>
<text
         transform="translate(0,25)"
         style="font-variant:normal;font-weight:normal;font-size:12px;font-family:'Times New Roman';-inkscape-font-specification:TimesNewRomanPSMT;writing-mode:lr-tb;fill:#000000;fill-opacity:1;fill-rule:nonzero;stroke:none"
         id="text288"><tspan
           x="0 8.0039062 14.003906 20.003906 23.003906 27.673828 31.007812 36.333984 39.667969 43.001953 47.671875 51.005859 54.339844 59.666016"
           y="0"
           sodipodi:role="line"
           id="tspan286">Bug statistics</tspan></text>
<text
         transform="translate(64.328125,25)"
         style="font-variant:normal;font-weight:normal;font-size:12px;font-family:'Times New Roman';-inkscape-font-specification:TimesNewRomanPSMT;writing-mode:lr-tb;fill:#000000;fill-opacity:1;fill-rule:nonzero;stroke:none"
         id="text292"><tspan
           x="0"
           y="0"
           id="tspan290"> </tspan></text>
<text
         transform="translate(0,39)"
         style="font-variant:normal;font-weight:normal;font-size:12px;font-family:'Times New Roman';-inkscape-font-specification:TimesNewRomanPSMT;writing-mode:lr-tb;fill:#000000;fill-opacity:1;fill-rule:nonzero;stroke:none"
         id="text296"><tspan
           x="0 6.4921875 11.818359 16.488281 19.822266 22.822266 28.148438 34.148438 43.482422 52.816406 58.142578 64.142578 70.142578"
           y="0"
           sodipodi:role="line"
           id="tspan294">Test commands</tspan></text>
<text
         transform="translate(74.8125,39)"
         style="font-variant:normal;font-weight:normal;font-size:12px;font-family:'Times New Roman';-inkscape-font-specification:TimesNewRomanPSMT;writing-mode:lr-tb;fill:#000000;fill-opacity:1;fill-rule:nonzero;stroke:none"
         id="text300"><tspan
           x="0"
           y="0"
           id="tspan298"> </tspan></text>
<text
         transform="translate(0,53)"
         style="font-variant:normal;font-weight:normal;font-size:12px;font-family:'Times New Roman';-inkscape-font-specification:TimesNewRomanPSMT;writing-mode:lr-tb;fill:#000000;fill-opacity:1;fill-rule:nonzero;stroke:none"
         id="text304"><tspan
           x="0 8.0039062 14.003906 20.003906 23.003906 27 32.326172 38.326172 44.326172 48.322266 51.65625 54.65625 60.65625 65.982422 69.316406"
           y="0"
           sodipodi:role="line"
           id="tspan302">Bug report data</tspan></text>
<text
         transform="translate(74.640625,53)"
         style="font-variant:normal;font-weight:normal;font-size:12px;font-family:'Times New Roman';-inkscape-font-specification:TimesNewRomanPSMT;writing-mode:lr-tb;fill:#000000;fill-opacity:1;fill-rule:nonzero;stroke:none"
         id="text308"><tspan
           x="0"
           y="0"
           id="tspan306"> </tspan></text>
</g><path
       inkscape:connector-curvature="0"
       id="path312"
       style="fill:#ffffff;fill-opacity:1;fill-rule:nonzero;stroke:none;stroke-width:0.71974522"
       d="m 245.79299,36.347134 h 85.70728 v 86.369426 h -85.70728 z" /><path
       inkscape:connector-curvature="0"
       id="path314"
       style="fill:none;stroke:#000000;stroke-width:0.71974522;stroke-linecap:butt;stroke-linejoin:miter;stroke-miterlimit:10;stroke-dasharray:none;stroke-opacity:1"
       d="m 245.79299,36.347134 h 85.70728 v 86.369426 h -85.70728 z" /><path
       inkscape:connector-curvature="0"
       id="path316"
       style="fill:#f0f0f0;fill-opacity:1;fill-rule:nonzero;stroke:none;stroke-width:0.71974522"
       d="m 245.79299,36.347134 h 85.70728 v 28.789808 h -85.70728 z" /><path
       inkscape:connector-curvature="0"
       id="path318"
       style="fill:none;stroke:#000000;stroke-width:0.71974522;stroke-linecap:butt;stroke-linejoin:miter;stroke-miterlimit:10;stroke-dasharray:none;stroke-opacity:1"
       d="m 245.79299,36.347134 h 85.70728 v 28.789808 h -85.70728 z" /><g
       id="g320"
       transform="matrix(0.71974522,0,0,0.71974522,251.19109,41.025478)"><text
         transform="translate(0.5,11)"
         style="font-variant:normal;font-weight:bold;font-size:12px;font-family:'Times New Roman';-inkscape-font-specification:TimesNewRomanPS-BoldMT;writing-mode:lr-tb;fill:#000000;fill-opacity:1;fill-rule:nonzero;stroke:none"
         id="text324"><tspan
           x="0 6.6738281 12.673828 18 24.673828 30 34.880859 38.876953 44.203125 50.876953 56.876953 60.210938 65.320312 71.320312 77.994141 87.990234 93.316406 99.990234"
           y="0"
           sodipodi:role="line"
           id="tspan322">docker­environment</tspan></text>
<text
         transform="translate(104.48438,11)"
         style="font-variant:normal;font-weight:bold;font-size:12px;font-family:'Times New Roman';-inkscape-font-specification:TimesNewRomanPS-BoldMT;writing-mode:lr-tb;fill:#000000;fill-opacity:1;fill-rule:nonzero;stroke:none"
         id="text328"><tspan
           x="0"
           y="0"
           id="tspan326"> </tspan></text>
<text
         transform="translate(30.84375,25)"
         style="font-style:italic;font-variant:normal;font-size:10px;font-family:'Times New Roman';-inkscape-font-specification:TimesNewRomanPS-ItalicMT;writing-mode:lr-tb;fill:#000000;fill-opacity:1;fill-rule:nonzero;stroke:none"
         id="text332"><tspan
           x="0 6.1083984 10.546875 15.546875 20.546875 24.438477 27.216797 29.995117 34.995117 38.886719"
           y="0"
           sodipodi:role="line"
           id="tspan330">Repository</tspan></text>
<text
         transform="translate(74.15625,25)"
         style="font-variant:normal;font-weight:bold;font-size:12px;font-family:'Times New Roman';-inkscape-font-specification:TimesNewRomanPS-BoldMT;writing-mode:lr-tb;fill:#000000;fill-opacity:1;fill-rule:nonzero;stroke:none"
         id="text336"><tspan
           x="0"
           y="0"
           id="tspan334"> </tspan></text>
</g><g
       id="g338"
       transform="matrix(0.71974522,0,0,0.71974522,251.19109,70.535034)"><text
         transform="translate(0,11)"
         style="font-variant:normal;font-weight:normal;font-size:12px;font-family:'Times New Roman';-inkscape-font-specification:TimesNewRomanPSMT;writing-mode:lr-tb;fill:#000000;fill-opacity:1;fill-rule:nonzero;stroke:none"
         id="text342"><tspan
           x="0 6.6738281 10.669922 15.996094 15.996094 19.992188 25.992188 31.992188 35.326172 38.660156 41.994141 44.994141 50.320312 56.320312 62.320312 65.654297 69.650391 75.650391 81.650391 90.984375 96.310547 102.31055"
           y="0"
           sodipodi:role="line"
           id="tspan340">Pre­-built environment</tspan></text>
<text
         transform="translate(105.64063,11)"
         style="font-variant:normal;font-weight:normal;font-size:12px;font-family:'Times New Roman';-inkscape-font-specification:TimesNewRomanPSMT;writing-mode:lr-tb;fill:#000000;fill-opacity:1;fill-rule:nonzero;stroke:none"
         id="text346"><tspan
           x="0"
           y="0"
           id="tspan344"> </tspan></text>
</g></g></svg>